<?xml version="1.0" encoding="UTF-8" standalone="no"?>
<!DOCTYPE svg PUBLIC "-//W3C//DTD SVG 1.1//EN" "http://www.w3.org/Graphics/SVG/1.1/DTD/svg11.dtd">
<svg width="100%" height="100%" viewBox="0 0 894 834" version="1.1" xmlns="http://www.w3.org/2000/svg" xmlns:xlink="http://www.w3.org/1999/xlink" xml:space="preserve" xmlns:serif="http://www.serif.com/" style="fill-rule:evenodd;clip-rule:evenodd;stroke-linejoin:round;stroke-miterlimit:2;">
    <g transform="matrix(1,0,0,1,-93.0082,-271.112)">
        <g id="Dude" transform="matrix(1,0,0,1,24.8331,-0.5921)">
            <g transform="matrix(2.3043,0,0,2.3043,-74.7522,214.623)">
                <path d="M358.75,173.61C363.307,160.425 368.661,146.421 373.252,133.889C363.943,124.341 359.753,110.266 363.452,96.459C369.035,75.625 390.481,63.243 411.315,68.826C432.149,74.408 444.531,95.854 438.948,116.688C434.062,134.926 417.018,146.687 398.871,145.59C396.145,159.711 391.757,173.606 387.095,185.912C425.614,206.228 449.513,236.122 449.973,269.422C451.367,370.367 361.558,374.937 272.315,377.122C178.376,379.423 84.689,374.063 83.247,269.422C82.784,235.853 108.002,205.745 147.065,185.42C142.076,180.828 137.373,176.909 133.457,174.338C128.282,170.942 122.039,168.563 115.601,166.752C102.791,177.519 83.624,176.877 71.573,164.826C58.844,152.097 58.844,131.428 71.573,118.699C84.303,105.97 104.972,105.97 117.701,118.699C122.563,123.561 125.568,129.583 126.715,135.875C136.874,138.943 147.714,143.695 157.129,149.875C163.742,154.215 172.645,162.45 181.399,171.29C206.859,163.19 235.856,158.604 266.61,158.604C300.189,158.604 331.671,164.071 358.75,173.61ZM335.729,245.303C351.492,245.303 364.29,258.101 364.29,273.865C364.29,289.628 351.492,302.426 335.729,302.426C319.965,302.426 307.167,289.628 307.167,273.865C307.167,258.101 319.965,245.303 335.729,245.303ZM197.492,243.934C213.256,243.934 226.054,256.732 226.054,272.495C226.054,288.258 213.256,301.056 197.492,301.056C181.729,301.056 168.931,288.258 168.931,272.495C168.931,256.732 181.729,243.934 197.492,243.934Z" style="fill:rgb(82,97,247);"/>
            </g>
            <g transform="matrix(-0.578814,-0.199436,-0.238993,0.69362,1304.19,412.961)">
                <path d="M361.431,850.207C347.879,848.598 334.121,848.598 320.569,850.207L313.17,869.806C299.938,872.366 287.304,876.733 275.779,882.731L253.939,873.238C242.992,880.097 233.265,888.214 225.046,897.349L236.421,915.574C229.233,925.192 224,935.734 220.933,946.776L197.447,952.951C195.518,964.26 195.518,975.74 197.447,987.049L220.933,993.224C224,1004.27 229.233,1014.81 236.421,1024.43L225.046,1042.65C233.265,1051.79 242.992,1059.9 253.939,1066.76L275.779,1057.27C287.304,1063.27 299.938,1067.63 313.17,1070.19L320.569,1089.79C334.121,1091.4 347.879,1091.4 361.431,1089.79L368.83,1070.19C382.062,1067.63 394.696,1063.27 406.221,1057.27L428.061,1066.76C439.008,1059.9 448.735,1051.79 456.954,1042.65L445.579,1024.43C452.767,1014.81 458,1004.27 461.067,993.224L484.553,987.049C486.482,975.74 486.482,964.26 484.553,952.951L461.067,946.776C458,935.734 452.767,925.192 445.579,915.574L456.954,897.349C448.735,888.214 439.008,880.097 428.061,873.238L406.221,882.731C394.696,876.733 382.062,872.366 368.83,869.806L361.431,850.207Z" style="fill:rgb(82,97,247);"/>
            </g>
            <g transform="matrix(-0.578814,-0.199436,-0.238993,0.69362,631.539,412.961)">
                <path d="M361.431,850.207C347.879,848.598 334.121,848.598 320.569,850.207L313.17,869.806C299.938,872.366 287.304,876.733 275.779,882.731L253.939,873.238C242.992,880.097 233.265,888.214 225.046,897.349L236.421,915.574C229.233,925.192 224,935.734 220.933,946.776L197.447,952.951C195.518,964.26 195.518,975.74 197.447,987.049L220.933,993.224C224,1004.27 229.233,1014.81 236.421,1024.43L225.046,1042.65C233.265,1051.79 242.992,1059.9 253.939,1066.76L275.779,1057.27C287.304,1063.27 299.938,1067.63 313.17,1070.19L320.569,1089.79C334.121,1091.4 347.879,1091.4 361.431,1089.79L368.83,1070.19C382.062,1067.63 394.696,1063.27 406.221,1057.27L428.061,1066.76C439.008,1059.9 448.735,1051.79 456.954,1042.65L445.579,1024.43C452.767,1014.81 458,1004.27 461.067,993.224L484.553,987.049C486.482,975.74 486.482,964.26 484.553,952.951L461.067,946.776C458,935.734 452.767,925.192 445.579,915.574L456.954,897.349C448.735,888.214 439.008,880.097 428.061,873.238L406.221,882.731C394.696,876.733 382.062,872.366 368.83,869.806L361.431,850.207Z" style="fill:rgb(82,97,247);"/>
            </g>
        </g>
        <g id="Hat" transform="matrix(1,0,0,1,18,55.8625)">
            <g transform="matrix(1,0,0,1.36284,-9,-191.217)">
                <path d="M396.048,381.052C395.687,379.707 395.5,378.356 395.5,377C395.5,335.192 468.762,298.25 559,298.25C649.238,298.25 722.5,335.192 722.5,377C722.5,378.356 722.313,379.707 721.952,381.052L702.204,527L415.796,527L396.048,381.052Z" style="fill:rgb(48,53,103);"/>
                <clipPath id="_clip1">
                    <path d="M396.048,381.052C395.687,379.707 395.5,378.356 395.5,377C395.5,335.192 468.762,298.25 559,298.25C649.238,298.25 722.5,335.192 722.5,377C722.5,378.356 722.313,379.707 721.952,381.052L702.204,527L415.796,527L396.048,381.052Z"/>
                </clipPath>
                <g clip-path="url(#_clip1)">
                    <g transform="matrix(0.877119,0,0,0.683157,105.53,200.906)">
                        <path d="M753,421.75C753,409.746 742.655,400 729.913,400L304.087,400C291.345,400 281,409.746 281,421.75L281,465.25C281,477.254 291.345,487 304.087,487L729.913,487C742.655,487 753,477.254 753,465.25L753,421.75Z" style="fill:rgb(82,97,247);"/>
                    </g>
                </g>
            </g>
            <g transform="matrix(0.877119,0,0,0.448276,96.5297,347.69)">
                <path d="M753,421.75C753,409.746 748.019,400 741.884,400L292.116,400C285.981,400 281,409.746 281,421.75L281,465.25C281,477.254 285.981,487 292.116,487L741.884,487C748.019,487 753,477.254 753,465.25L753,421.75Z" style="fill:rgb(62,68,128);"/>
            </g>
        </g>
    </g>
</svg>
