<?xml version="1.0" encoding="UTF-8" standalone="no"?>
<!DOCTYPE svg PUBLIC "-//W3C//DTD SVG 1.1//EN" "http://www.w3.org/Graphics/SVG/1.1/DTD/svg11.dtd">
<svg width="100%" height="100%" viewBox="0 0 923 861" version="1.1" xmlns="http://www.w3.org/2000/svg" xmlns:xlink="http://www.w3.org/1999/xlink" xml:space="preserve" xmlns:serif="http://www.serif.com/" style="fill-rule:evenodd;clip-rule:evenodd;stroke-linejoin:round;stroke-miterlimit:2;">
    <g transform="matrix(1,0,0,1,-93.0082,-258.387)">
        <g id="Dude">
            <path id="Body" d="M734.351,590.671C746.375,578.76 769.832,556.93 799.925,535.812C825.853,517.617 848.932,508.003 863.186,503.234C864.166,492.389 867.492,481.581 873.359,471.565C894.685,435.158 941.567,422.92 977.986,444.253C1014.4,465.586 1026.66,512.464 1005.33,548.871C984.003,585.279 937.121,597.517 900.703,576.184C896.347,573.632 892.337,570.716 888.691,567.496C875.867,571.509 859.632,578.321 845,589.637C835.402,597.059 825.697,607.106 817.018,617.211C824.289,620.565 832.299,624.553 842.065,629.703C930.824,676.518 985.895,745.403 986.955,822.136C990.167,1054.74 720.693,1119.45 568,1119.31C415.307,1119.17 145.231,1063.26 141.907,822.136C140.841,744.783 198.95,675.405 288.963,628.57C277.467,617.988 266.63,608.958 257.606,603.033C245.681,595.208 231.296,589.726 216.461,585.553C186.942,610.363 142.776,608.884 115.007,581.115C85.675,551.783 85.675,504.156 115.007,474.824C144.341,445.493 191.968,445.493 221.3,474.824C232.503,486.028 239.428,499.904 242.071,514.403C265.48,521.473 290.459,532.423 312.154,546.663C327.392,556.664 347.907,575.64 368.079,596.01C426.747,577.345 497.133,586.002 568,586.002C628.261,586.002 683.426,582.247 734.351,590.671ZM709.187,766.558C745.51,766.558 775,796.049 775,832.374C775,868.696 745.51,898.187 709.187,898.187C672.862,898.187 643.371,868.696 643.371,832.374C643.371,796.049 672.862,766.558 709.187,766.558ZM390.647,763.404C426.972,763.404 456.462,792.894 456.462,829.217C456.462,865.54 426.972,895.03 390.647,895.03C354.324,895.03 324.834,865.54 324.834,829.217C324.834,792.894 354.324,763.404 390.647,763.404Z" style="fill:rgb(82,97,247);"/>
        </g>
        <g id="Hat" transform="matrix(1,0,0,1,18,43.1369)">
            <g transform="matrix(1,0,0,1.36284,-9,-191.217)">
                <path d="M396.048,381.052C395.687,379.707 395.5,378.356 395.5,377C395.5,335.192 468.762,298.25 559,298.25C649.238,298.25 722.5,335.192 722.5,377C722.5,378.356 722.313,379.707 721.952,381.052L702.204,527L415.796,527L396.048,381.052Z" style="fill:rgb(48,53,103);"/>
                <clipPath id="_clip1">
                    <path d="M396.048,381.052C395.687,379.707 395.5,378.356 395.5,377C395.5,335.192 468.762,298.25 559,298.25C649.238,298.25 722.5,335.192 722.5,377C722.5,378.356 722.313,379.707 721.952,381.052L702.204,527L415.796,527L396.048,381.052Z"/>
                </clipPath>
                <g clip-path="url(#_clip1)">
                    <g transform="matrix(0.877119,0,0,0.683157,105.53,200.906)">
                        <path d="M753,421.75C753,409.746 742.655,400 729.913,400L304.087,400C291.345,400 281,409.746 281,421.75L281,465.25C281,477.254 291.345,487 304.087,487L729.913,487C742.655,487 753,477.254 753,465.25L753,421.75Z" style="fill:rgb(82,97,247);"/>
                    </g>
                </g>
            </g>
            <g transform="matrix(0.877119,0,0,0.448276,96.5297,347.69)">
                <path d="M753,421.75C753,409.746 748.019,400 741.884,400L292.116,400C285.981,400 281,409.746 281,421.75L281,465.25C281,477.254 285.981,487 292.116,487L741.884,487C748.019,487 753,477.254 753,465.25L753,421.75Z" style="fill:rgb(62,68,128);"/>
            </g>
        </g>
    </g>
</svg>
