<?xml version="1.0" encoding="UTF-8" standalone="no"?>
<!DOCTYPE svg PUBLIC "-//W3C//DTD SVG 1.1//EN" "http://www.w3.org/Graphics/SVG/1.1/DTD/svg11.dtd">
<svg width="100%" height="100%" viewBox="0 0 923 861" version="1.1" xmlns="http://www.w3.org/2000/svg" xmlns:xlink="http://www.w3.org/1999/xlink" xml:space="preserve" xmlns:serif="http://www.serif.com/" style="fill-rule:evenodd;clip-rule:evenodd;stroke-linejoin:round;stroke-miterlimit:2;">
    <g transform="matrix(1,0,0,1,-106.008,-258.387)">
        <g id="Dude">
            <path id="Body" d="M747.351,590.671C759.375,578.76 782.832,556.93 812.925,535.812C838.853,517.617 861.932,508.003 876.186,503.234C877.166,492.389 880.492,481.581 886.359,471.565C907.685,435.158 954.567,422.92 990.986,444.253C1027.4,465.586 1039.66,512.464 1018.33,548.871C997.003,585.279 950.121,597.517 913.703,576.184C909.347,573.632 905.337,570.716 901.691,567.496C888.867,571.509 872.632,578.321 858,589.637C848.402,597.059 838.697,607.106 830.018,617.211C837.289,620.565 845.299,624.553 855.065,629.703C943.824,676.518 998.895,745.403 999.955,822.136C1003.17,1054.74 721.841,1119.31 581,1119.31C440.159,1119.31 158.231,1063.26 154.907,822.136C153.841,744.783 211.95,675.405 301.963,628.57C290.467,617.988 279.63,608.958 270.606,603.033C258.681,595.208 244.296,589.726 229.461,585.553C199.942,610.363 155.776,608.884 128.007,581.115C98.675,551.783 98.675,504.156 128.007,474.824C157.341,445.493 204.968,445.493 234.3,474.824C245.503,486.028 252.428,499.904 255.071,514.403C278.48,521.473 303.459,532.423 325.154,546.663C340.392,556.664 360.907,575.64 381.079,596.01C439.747,577.345 510.133,586.002 581,586.002C641.261,586.002 696.426,582.247 747.351,590.671ZM733.538,759.737C769.86,759.737 799.351,789.228 799.351,825.553C799.351,861.875 769.86,891.366 733.538,891.366C697.212,891.366 667.722,861.875 667.722,825.553C667.722,789.228 697.212,759.737 733.538,759.737ZM416.077,762.523C452.402,762.523 481.353,789.23 481.353,825.553C481.353,861.875 451.863,891.366 415.538,891.366C379.215,891.366 349.724,861.875 349.724,825.553C349.724,789.23 379.755,762.523 416.077,762.523Z" style="fill:rgb(82,97,247);"/>
        </g>
        <g id="Hat" transform="matrix(1,0,0,1,18,43.1369)">
            <g transform="matrix(1,0,0,1.36284,-9,-191.217)">
                <path d="M396.048,381.052C395.687,379.707 395.5,378.356 395.5,377C395.5,335.192 468.762,298.25 559,298.25C649.238,298.25 722.5,335.192 722.5,377C722.5,378.356 722.313,379.707 721.952,381.052L702.204,527L415.796,527L396.048,381.052Z" style="fill:rgb(48,53,103);"/>
                <clipPath id="_clip1">
                    <path d="M396.048,381.052C395.687,379.707 395.5,378.356 395.5,377C395.5,335.192 468.762,298.25 559,298.25C649.238,298.25 722.5,335.192 722.5,377C722.5,378.356 722.313,379.707 721.952,381.052L702.204,527L415.796,527L396.048,381.052Z"/>
                </clipPath>
                <g clip-path="url(#_clip1)">
                    <g transform="matrix(0.877119,0,0,0.683157,105.53,200.906)">
                        <path d="M753,421.75C753,409.746 742.655,400 729.913,400L304.087,400C291.345,400 281,409.746 281,421.75L281,465.25C281,477.254 291.345,487 304.087,487L729.913,487C742.655,487 753,477.254 753,465.25L753,421.75Z" style="fill:rgb(82,97,247);"/>
                    </g>
                </g>
            </g>
            <g transform="matrix(0.877119,0,0,0.448276,96.5297,347.69)">
                <path d="M753,421.75C753,409.746 748.019,400 741.884,400L292.116,400C285.981,400 281,409.746 281,421.75L281,465.25C281,477.254 285.981,487 292.116,487L741.884,487C748.019,487 753,477.254 753,465.25L753,421.75Z" style="fill:rgb(62,68,128);"/>
            </g>
        </g>
    </g>
</svg>
